<svg width="42" height="42" viewBox="0 0 42 42" fill="none" xmlns="http://www.w3.org/2000/svg">
<path d="M17.976 6.48376C18.1587 6.77608 18.282 7.10153 18.339 7.44151C18.3959 7.7815 18.3853 8.12937 18.3078 8.46526C18.2303 8.80116 18.0874 9.11849 17.8872 9.39916C17.687 9.67982 17.4336 9.91831 17.1413 10.101C13.9447 12.0891 11.4062 14.9765 9.84375 18.4013C11.4237 18.2691 13.0067 18.617 14.3858 19.3993C15.7648 20.1816 16.8755 21.362 17.5727 22.7859C18.2699 24.2099 18.5211 25.8111 18.2933 27.3801C18.0656 28.9492 17.3695 30.4129 16.2962 31.5798C15.2229 32.7468 13.8224 33.5626 12.2779 33.9205C10.7333 34.2785 9.11674 34.1619 7.63956 33.586C6.16238 33.0101 4.89343 32.0018 3.99872 30.6929C3.10402 29.384 2.62523 27.8355 2.625 26.25V26.1791C2.62705 25.9759 2.63581 25.7728 2.65125 25.5701C2.67487 25.1764 2.72213 24.6251 2.814 23.9479C2.99775 22.6013 3.35737 20.7454 4.0845 18.6611C5.5335 14.4874 8.46825 9.32926 14.3587 5.64901C14.6511 5.4663 14.9765 5.34297 15.3165 5.28604C15.6565 5.22911 16.0044 5.23971 16.3403 5.31722C16.6762 5.39474 16.9935 5.53765 17.2741 5.7378C17.5548 5.93796 17.7933 6.19143 17.976 6.48376ZM36.351 6.48376C36.5337 6.77608 36.657 7.10153 36.714 7.44151C36.7709 7.7815 36.7603 8.12937 36.6828 8.46526C36.6053 8.80116 36.4624 9.11849 36.2622 9.39916C36.062 9.67982 35.8086 9.91831 35.5163 10.101C32.3196 12.089 29.781 14.9764 28.2188 18.4013C29.7987 18.2691 31.3817 18.617 32.7608 19.3993C34.1398 20.1816 35.2505 21.362 35.9477 22.7859C36.6449 24.2099 36.8961 25.8111 36.6683 27.3801C36.4406 28.9492 35.7445 30.4129 34.6712 31.5798C33.5979 32.7468 32.1974 33.5626 30.6529 33.9205C29.1084 34.2785 27.4917 34.1619 26.0146 33.586C24.5374 33.0101 23.2684 32.0018 22.3737 30.6929C21.479 29.384 21.0002 27.8355 21 26.25V26.1791C21.0021 25.9759 21.0108 25.7728 21.0263 25.5701C21.0499 25.1764 21.0971 24.6251 21.189 23.9479C21.3727 22.6013 21.7324 20.7454 22.4595 18.6611C23.9085 14.4874 26.8433 9.32926 32.7338 5.64901C33.0261 5.4663 33.3515 5.34297 33.6915 5.28604C34.0315 5.22911 34.3794 5.23971 34.7153 5.31722C35.0512 5.39474 35.3685 5.53765 35.6491 5.7378C35.9298 5.93796 36.1683 6.19143 36.351 6.48376Z" fill="#D1B8B8"/>
</svg>
