<svg width="16" height="21" viewBox="0 0 16 21" fill="none" xmlns="http://www.w3.org/2000/svg">
<path d="M14.5171 0.185076C14.3549 0.101788 14.1731 0.0642441 13.9911 0.0764777C13.8092 0.0887113 13.634 0.150255 13.4845 0.254509L0.531982 9.32278C0.399629 9.41551 0.291722 9.53893 0.2175 9.68248C0.143277 9.82603 0.104951 9.98543 0.105801 10.147C0.106651 10.3086 0.146653 10.4676 0.222382 10.6104C0.298111 10.7531 0.40731 10.8754 0.540631 10.9668L13.5878 19.8982C13.7384 20.0013 13.9143 20.0611 14.0964 20.0713C14.2786 20.0816 14.46 20.0418 14.6212 19.9563C14.7823 19.8707 14.917 19.7428 15.0107 19.5862C15.1043 19.4296 15.1534 19.2504 15.1525 19.068L15.0578 1.06824C15.0568 0.885709 15.0059 0.70691 14.9106 0.551228C14.8153 0.395546 14.6792 0.268922 14.5171 0.185076Z" fill="white"/>
</svg>
