<svg width="140" height="24" viewBox="0 0 140 24" fill="none" xmlns="http://www.w3.org/2000/svg">
<path d="M11.99 2C6.47 2 2 6.48 2 12C2 17.52 6.47 22 11.99 22C17.52 22 22 17.52 22 12C22 6.48 17.52 2 11.99 2ZM15.22 17.39L12 15.45L8.78 17.39C8.69575 17.4411 8.59833 17.4663 8.49987 17.4624C8.40141 17.4585 8.30626 17.4258 8.2263 17.3682C8.14633 17.3106 8.08508 17.2308 8.05017 17.1386C8.01526 17.0465 8.00825 16.9461 8.03 16.85L8.88 13.19L6.05 10.74C5.97649 10.6745 5.92372 10.589 5.89818 10.4939C5.87265 10.3988 5.87546 10.2984 5.90627 10.2049C5.93708 10.1114 5.99455 10.0289 6.07161 9.96762C6.14867 9.90636 6.24196 9.86895 6.34 9.86L10.08 9.54L11.54 6.09C11.71 5.68 12.29 5.68 12.46 6.09L13.92 9.53L17.66 9.85C17.7584 9.85846 17.8522 9.89589 17.9293 9.95757C18.0065 10.0192 18.0637 10.1024 18.0937 10.1966C18.1236 10.2907 18.125 10.3916 18.0977 10.4866C18.0703 10.5815 18.0155 10.6662 17.94 10.73L15.11 13.18L15.96 16.85C16.06 17.28 15.6 17.62 15.22 17.39Z" fill="#FFA800"/>
<path d="M40.99 2C35.47 2 31 6.48 31 12C31 17.52 35.47 22 40.99 22C46.52 22 51 17.52 51 12C51 6.48 46.52 2 40.99 2ZM44.22 17.39L41 15.45L37.78 17.39C37.6958 17.4411 37.5983 17.4663 37.4999 17.4624C37.4014 17.4585 37.3063 17.4258 37.2263 17.3682C37.1463 17.3106 37.0851 17.2308 37.0502 17.1386C37.0153 17.0465 37.0082 16.9461 37.03 16.85L37.88 13.19L35.05 10.74C34.9765 10.6745 34.9237 10.589 34.8982 10.4939C34.8726 10.3988 34.8755 10.2984 34.9063 10.2049C34.9371 10.1114 34.9946 10.0289 35.0716 9.96762C35.1487 9.90636 35.242 9.86895 35.34 9.86L39.08 9.54L40.54 6.09C40.71 5.68 41.29 5.68 41.46 6.09L42.92 9.53L46.66 9.85C46.7584 9.85846 46.8522 9.89589 46.9293 9.95757C47.0065 10.0192 47.0637 10.1024 47.0937 10.1966C47.1236 10.2907 47.125 10.3916 47.0977 10.4866C47.0703 10.5815 47.0155 10.6662 46.94 10.73L44.11 13.18L44.96 16.85C45.06 17.28 44.6 17.62 44.22 17.39Z" fill="#FFA800"/>
<path d="M69.99 2C64.47 2 60 6.48 60 12C60 17.52 64.47 22 69.99 22C75.52 22 80 17.52 80 12C80 6.48 75.52 2 69.99 2ZM73.22 17.39L70 15.45L66.78 17.39C66.6958 17.4411 66.5983 17.4663 66.4999 17.4624C66.4014 17.4585 66.3063 17.4258 66.2263 17.3682C66.1463 17.3106 66.0851 17.2308 66.0502 17.1386C66.0153 17.0465 66.0082 16.9461 66.03 16.85L66.88 13.19L64.05 10.74C63.9765 10.6745 63.9237 10.589 63.8982 10.4939C63.8726 10.3988 63.8755 10.2984 63.9063 10.2049C63.9371 10.1114 63.9946 10.0289 64.0716 9.96762C64.1487 9.90636 64.242 9.86895 64.34 9.86L68.08 9.54L69.54 6.09C69.71 5.68 70.29 5.68 70.46 6.09L71.92 9.53L75.66 9.85C75.7584 9.85846 75.8522 9.89589 75.9293 9.95757C76.0065 10.0192 76.0637 10.1024 76.0937 10.1966C76.1236 10.2907 76.125 10.3916 76.0977 10.4866C76.0703 10.5815 76.0155 10.6662 75.94 10.73L73.11 13.18L73.96 16.85C74.06 17.28 73.6 17.62 73.22 17.39Z" fill="#FFA800"/>
<path d="M98.99 2C93.47 2 89 6.48 89 12C89 17.52 93.47 22 98.99 22C104.52 22 109 17.52 109 12C109 6.48 104.52 2 98.99 2ZM102.22 17.39L99 15.45L95.78 17.39C95.6958 17.4411 95.5983 17.4663 95.4999 17.4624C95.4014 17.4585 95.3063 17.4258 95.2263 17.3682C95.1463 17.3106 95.0851 17.2308 95.0502 17.1386C95.0153 17.0465 95.0082 16.9461 95.03 16.85L95.88 13.19L93.05 10.74C92.9765 10.6745 92.9237 10.589 92.8982 10.4939C92.8726 10.3988 92.8755 10.2984 92.9063 10.2049C92.9371 10.1114 92.9946 10.0289 93.0716 9.96762C93.1487 9.90636 93.242 9.86895 93.34 9.86L97.08 9.54L98.54 6.09C98.71 5.68 99.29 5.68 99.46 6.09L100.92 9.53L104.66 9.85C104.758 9.85846 104.852 9.89589 104.929 9.95757C105.007 10.0192 105.064 10.1024 105.094 10.1966C105.124 10.2907 105.125 10.3916 105.098 10.4866C105.07 10.5815 105.015 10.6662 104.94 10.73L102.11 13.18L102.96 16.85C103.06 17.28 102.6 17.62 102.22 17.39Z" fill="#FFA800"/>
<path d="M127.99 2C122.47 2 118 6.48 118 12C118 17.52 122.47 22 127.99 22C133.52 22 138 17.52 138 12C138 6.48 133.52 2 127.99 2ZM131.22 17.39L128 15.45L124.78 17.39C124.696 17.4411 124.598 17.4663 124.5 17.4624C124.401 17.4585 124.306 17.4258 124.226 17.3682C124.146 17.3106 124.085 17.2308 124.05 17.1386C124.015 17.0465 124.008 16.9461 124.03 16.85L124.88 13.19L122.05 10.74C121.976 10.6745 121.924 10.589 121.898 10.4939C121.873 10.3988 121.875 10.2984 121.906 10.2049C121.937 10.1114 121.995 10.0289 122.072 9.96762C122.149 9.90636 122.242 9.86895 122.34 9.86L126.08 9.54L127.54 6.09C127.71 5.68 128.29 5.68 128.46 6.09L129.92 9.53L133.66 9.85C133.758 9.85846 133.852 9.89589 133.929 9.95757C134.007 10.0192 134.064 10.1024 134.094 10.1966C134.124 10.2907 134.125 10.3916 134.098 10.4866C134.07 10.5815 134.015 10.6662 133.94 10.73L131.11 13.18L131.96 16.85C132.06 17.28 131.6 17.62 131.22 17.39Z" fill="#BABABA"/>
</svg>
